<?xml version="1.0" encoding="UTF-8"?>
<svg width="20px" height="20px" viewBox="0 0 20 20" version="1.1" xmlns="http://www.w3.org/2000/svg" xmlns:xlink="http://www.w3.org/1999/xlink">
    <!-- Generator: Sketch 42 (36781) - http://www.bohemiancoding.com/sketch -->
    <title>agregarComent_icon</title>
    <desc>Created with Sketch.</desc>
    <defs></defs>
    <g id="Diseño-visual-ok" stroke="none" stroke-width="1" fill="none" fill-rule="evenodd">
        <g id="Seleccionar-Plan" transform="translate(-19.000000, -317.000000)" fill="#222224">
            <g id="free_plan" transform="translate(19.000000, 137.000000)">
                <g id="agregarComent_icon" transform="translate(0.000000, 183.000000)">
                    <g id="Capa_1">
                        <path d="M18.9826029,4.16746372 L12.9918134,4.16746372 L12.9918134,0.482086189 C12.9918134,0.217714284 12.7779863,0.00338283702 12.5142364,0.00338283702 L0.477576991,0.00338283702 C0.213827138,0.00338283702 0,0.217714284 0,0.482086189 L0,8.97524105 C0,9.23961296 0.213827138,9.4539444 0.477576991,9.4539444 L3.53381502,9.4539444 C3.79756488,9.4539444 4.01139201,9.23961296 4.01139201,8.97524105 C4.01139201,8.71086915 3.79756488,8.4965377 3.53381502,8.4965377 L0.955153981,8.4965377 L0.955153981,0.96078954 L12.0366594,0.96078954 L12.0366594,4.1673999 L9.81185111,4.1673999 C9.54810126,4.1673999 9.33427412,4.38173134 9.33427412,4.64610325 L9.33427412,8.4965377 L7.38716089,8.4965377 C7.28992622,8.4965377 7.19498391,8.52628113 7.11506936,8.58187455 L3.26172349,11.259422 C3.04496722,11.410054 2.99103285,11.7082542 3.14131041,11.9255217 C3.23402403,12.0596225 3.38290069,12.1314918 3.53419709,12.1314918 C3.62805688,12.1314918 3.72287183,12.1038547 3.80584288,12.046155 L7.53641962,9.45388058 L9.33427412,9.45388058 L9.33427412,11.0159215 C9.33427412,11.2802934 9.54810126,11.4946249 9.81185111,11.4946249 L13.6510607,11.4946249 L16.4183328,13.4174805 C16.5013039,13.4751802 16.5961188,13.5028174 16.6899786,13.5028174 C16.841275,13.5028174 16.9901517,13.4308842 17.0828653,13.2967834 C17.2331428,13.0795159 17.1792722,12.7812518 16.9624522,12.6306198 L14.072411,10.6224274 C13.9924964,10.5668978 13.8975541,10.5371543 13.8003194,10.5371543 L10.2893007,10.5371543 L10.2893007,5.12467895 L18.5048985,5.12467895 L18.5048985,10.5371543 L16.6903607,10.5371543 C16.4266108,10.5371543 16.2127837,10.7514858 16.2127837,11.0158577 C16.2127837,11.2802296 16.4266108,11.494561 16.6903607,11.494561 L18.9824755,11.494561 C19.2462254,11.494561 19.4600525,11.2802296 19.4600525,11.0158577 L19.4600525,4.64597559 C19.4601799,4.38179517 19.2463527,4.16746372 18.9826029,4.16746372 Z" id="Shape"></path>
                    </g>
                </g>
            </g>
        </g>
    </g>
</svg>