<?xml version="1.0" encoding="UTF-8"?>
<svg width="20px" height="20px" viewBox="0 0 20 20" version="1.1" xmlns="http://www.w3.org/2000/svg" xmlns:xlink="http://www.w3.org/1999/xlink">
    <!-- Generator: Sketch 42 (36781) - http://www.bohemiancoding.com/sketch -->
    <title>pedidoCotizacion_icon</title>
    <desc>Created with Sketch.</desc>
    <defs></defs>
    <g id="Diseño-visual-ok" stroke="none" stroke-width="1" fill="none" fill-rule="evenodd">
        <g id="Seleccionar-Plan" transform="translate(-19.000000, -225.000000)" stroke-width="0.3" stroke="#FFFFFF" fill="#000000">
            <g id="free_plan" transform="translate(19.000000, 137.000000)">
                <g id="pedidoCotizacion_icon" transform="translate(0.000000, 89.000000)">
                    <g id="Capa_1">
                        <g id="Group">
                            <path d="M15.2549436,7.5158465 C15.2544921,7.51214447 15.2542212,7.50839729 15.2536795,7.50474041 C15.2510609,7.48650113 15.2475847,7.468307 15.2426637,7.4503386 C15.2426185,7.45015801 15.2425282,7.44997743 15.2424831,7.44975169 C15.2378781,7.43295711 15.232009,7.41638826 15.2253725,7.4 C15.2234763,7.39530474 15.2213995,7.39079007 15.2193679,7.3861851 C15.2141309,7.37435666 15.208307,7.3627088 15.2019865,7.35124153 C15.1992325,7.34623025 15.1965688,7.34121896 15.1935892,7.33629797 C15.192009,7.33363431 15.1907449,7.33088036 15.1890745,7.3282167 C15.1823928,7.31760722 15.175079,7.3076298 15.1676749,7.29774266 C15.1662754,7.29589165 15.1651467,7.29395034 15.1637472,7.29214447 C15.1524605,7.27751693 15.1402709,7.26392777 15.1274944,7.25106095 C15.1251016,7.24862302 15.1224831,7.24636569 15.12,7.24401806 C15.1088939,7.23331828 15.0973815,7.22329571 15.0853725,7.21386005 C15.0823025,7.21146727 15.0793228,7.20907449 15.0761625,7.20677201 C15.0600903,7.19485327 15.0435214,7.18374718 15.0262302,7.17413093 L8.37498871,3.39340858 L12.2045598,0.981941309 L18.6247404,4.63124153 L15.9208578,6.33386005 C15.709842,6.46668172 15.6465011,6.74546275 15.7793679,6.95643341 C15.9121896,7.16744921 16.1909255,7.23079007 16.4019413,7.09792325 L19.7439729,4.99349887 C19.8783296,4.90893905 19.9583747,4.76 19.954763,4.60126411 C19.9511964,4.44252822 19.8645598,4.29742664 19.7265011,4.21896163 L12.4157562,0.0633860045 C12.2711512,-0.0188713318 12.0929571,-0.0148081264 11.9520993,0.0738148984 L7.25882619,3.02916479 C7.2578781,3.02975169 7.25688488,3.03038375 7.25593679,3.03097065 L4.91069977,4.50776524 C4.90961625,4.50844244 4.90853273,4.50911964 4.90749436,4.50979684 L0.211015801,7.46717833 C0.0766591422,7.55173815 -0.00338600451,7.7006772 0.000225733634,7.85941309 C0.00379232506,8.01814898 0.0904288939,8.16325056 0.228487585,8.24171558 L7.53927765,12.3972912 C7.60853273,12.4367043 7.68546275,12.456298 7.76234763,12.456298 C7.84600451,12.456298 7.92952596,12.4330474 8.00288939,12.3868623 L11.344921,10.2823928 C11.5559368,10.1495711 11.6192777,9.87079007 11.4864108,9.65981941 C11.3536343,9.44880361 11.0748081,9.38541761 10.8638375,9.51832957 L7.75047404,11.478781 L1.33029345,7.82939052 L5.15990971,5.4178781 L12.0073138,9.31006772 L12.0073138,14.4650113 C12.0073138,14.6294357 12.0966591,14.7808126 12.2405869,14.8602709 C12.308623,14.897833 12.3837472,14.9164786 12.458781,14.9164786 C12.5424831,14.9164786 12.6260045,14.893228 12.6993228,14.8470429 L15.0475847,13.3683521 C15.1788713,13.2856885 15.2585102,13.1414447 15.2585102,12.9863205 L15.2585102,7.56871332 C15.2585102,7.56604966 15.2580587,7.56352144 15.2579684,7.56085779 C15.2576975,7.54586907 15.2567043,7.53088036 15.2549436,7.5158465 Z M12.9102483,13.6472686 L12.9102483,9.04744921 C12.9102483,8.88505643 12.8230248,8.73521445 12.681851,8.65498871 L6.02672686,4.87209932 L7.50812641,3.93923251 L13.9282619,7.58857788 L13.36614,7.94252822 C13.1551242,8.07534989 13.0917833,8.35413093 13.2246501,8.56510158 C13.3104289,8.7014447 13.4571106,8.77607223 13.6071332,8.77607223 C13.6893002,8.77607223 13.7725508,8.75363431 13.8472235,8.70659142 L14.3555305,8.38654628 L14.3555305,12.7371558 L12.9102483,13.6472686 Z" id="Shape"></path>
                            <path d="M19.2629345,6.03525959 L15.9209029,8.13968397 C15.7098871,8.27250564 15.6465463,8.55128668 15.7794131,8.76225734 C15.8651919,8.89860045 16.0118736,8.97322799 16.1618962,8.97322799 C16.2440632,8.97322799 16.3273138,8.95079007 16.4019865,8.90374718 L19.7440181,6.7993228 C19.9550339,6.66650113 20.0183747,6.38772009 19.8855079,6.17674944 C19.7526862,5.96573363 19.4739052,5.90234763 19.2629345,6.03525959 Z" id="Shape"></path>
                            <path d="M10.8637923,11.3241535 L7.75042889,13.284605 L0.67462754,9.26261851 C0.458013544,9.13945824 0.182257336,9.21512415 0.0590519187,9.43200903 C-0.0641534989,9.64875847 0.0116478555,9.92437923 0.228442438,10.0475847 L7.53923251,14.2031603 C7.60848758,14.2425734 7.68541761,14.262167 7.76230248,14.262167 C7.84595937,14.262167 7.92948081,14.2389165 8.00284424,14.1927314 L11.3448758,12.0882619 C11.5558916,11.9554402 11.6192325,11.6766591 11.4863657,11.4656885 C11.3535892,11.2546275 11.074763,11.1912415 10.8637923,11.3241535 Z" id="Shape"></path>
                            <path d="M19.2629345,7.84112867 L15.9209029,9.94555305 C15.7098871,10.0783747 15.6465463,10.3571558 15.7794131,10.5681264 C15.8651919,10.7044695 16.0118736,10.7790971 16.1618962,10.7790971 C16.2440632,10.7790971 16.3273138,10.7566591 16.4019865,10.7096163 L19.7440181,8.60519187 C19.9550339,8.4723702 20.0183747,8.19358916 19.8855079,7.98261851 C19.7526862,7.77155756 19.4739052,7.7082167 19.2629345,7.84112867 Z" id="Shape"></path>
                            <path d="M10.8637923,13.1300226 L7.75042889,15.090474 L0.67462754,11.0684876 C0.458013544,10.9453273 0.182257336,11.0209932 0.0590519187,11.2378781 C-0.0641534989,11.4546275 0.0116478555,11.7302483 0.228442438,11.8534537 L7.53923251,16.0090293 C7.60848758,16.0484424 7.68541761,16.0680361 7.76230248,16.0680361 C7.84595937,16.0680361 7.92948081,16.0447856 8.00284424,15.9986005 L11.3448758,13.8941309 C11.5558916,13.7613093 11.6192325,13.4825282 11.4863657,13.2715576 C11.3535892,13.0604515 11.074763,12.9971106 10.8637923,13.1300226 Z" id="Shape"></path>
                            <path d="M19.2629345,9.64699774 L15.9209029,11.7514221 C15.7098871,11.8842438 15.6465463,12.1630248 15.7794131,12.3739955 C15.8651919,12.5103386 16.0118736,12.5849661 16.1618962,12.5849661 C16.2440632,12.5849661 16.3273138,12.5625282 16.4019865,12.5154853 L19.7440181,10.4110609 C19.9550339,10.2782393 20.0183747,9.99945824 19.8855079,9.78848758 C19.7526862,9.57747178 19.4739052,9.51413093 19.2629345,9.64699774 Z" id="Shape"></path>
                            <path d="M10.8637923,14.9358916 L7.75042889,16.8963431 L0.67462754,12.8743567 C0.458013544,12.7511964 0.182257336,12.8268623 0.0590519187,13.0437472 C-0.0641534989,13.2604966 0.0116478555,13.5361174 0.228442438,13.6593228 L7.53923251,17.8148984 C7.60848758,17.8543115 7.68541761,17.8739052 7.76230248,17.8739052 C7.84595937,17.8739052 7.92948081,17.8506546 8.00284424,17.8044695 L11.3448758,15.7 C11.5558916,15.5671783 11.6192325,15.2883973 11.4863657,15.0774266 C11.3535892,14.8663657 11.074763,14.8029797 10.8637923,14.9358916 Z" id="Shape"></path>
                        </g>
                    </g>
                </g>
            </g>
        </g>
    </g>
</svg>