<?xml version="1.0" encoding="UTF-8"?>
<svg width="28px" height="28px" viewBox="0 0 28 28" version="1.1" xmlns="http://www.w3.org/2000/svg" xmlns:xlink="http://www.w3.org/1999/xlink">
    <!-- Generator: Sketch 42 (36781) - http://www.bohemiancoding.com/sketch -->
    <title>contacto_off</title>
    <desc>Created with Sketch.</desc>
    <defs>
        <polygon id="path-1" points="26.3700434 17.5136414 26.3700434 0.000188499809 0.26355991 0.000188499809 0.26355991 17.5136414 26.3700434 17.5136414"></polygon>
    </defs>
    <g id="Symbols" stroke="none" stroke-width="1" fill="none" fill-rule="evenodd">
        <g id="Bottom-Bar/Tab-Bar-Sin-seleccion" transform="translate(-252.000000, -5.000000)">
            <g id="contacto_off" transform="translate(252.000000, 5.000000)">
                <g id="Group-3" transform="translate(0.498311, 4.327954)">
                    <mask id="mask-2" fill="white">
                        <use xlink:href="#path-1"></use>
                    </mask>
                    <g id="Clip-2"></g>
                    <path d="M10.2684534,12.1505092 L12.9731432,12.1505092 L12.9731432,14.4094909 C12.9731432,14.6556717 13.1772929,14.8554815 13.4282837,14.8554815 L18.7174377,14.8554815 L22.5353872,17.4386829 C22.735243,17.5736487 23.0299524,17.5204918 23.1673533,17.326337 C23.3117803,17.1235112 23.2598647,16.8449085 23.0525923,16.7046646 L19.1175398,14.0426703 C19.0410325,13.9906444 18.9516438,13.9635004 18.8587421,13.9635004 L13.8830339,13.9635004 L13.8830339,6.41182102 L25.4598405,6.41182102 L25.4598405,13.9635004 L22.7937946,13.9635004 C22.5431941,13.9635004 22.3390444,14.1636872 22.3390444,14.4094909 C22.3390444,14.6556717 22.5431941,14.8554815 22.7937946,14.8554815 L25.9149809,14.8554815 C26.1659718,14.8554815 26.3701214,14.6556717 26.3701214,14.4094909 L26.3701214,5.96583047 C26.3701214,5.72002672 26.1659718,5.52021692 25.9149809,5.52021692 L17.5628017,5.52021692 L17.5628017,0.446179049 C17.5628017,0.200375297 17.3586521,0.000188499809 17.1076613,0.000188499809 L0.718700394,0.000188499809 C0.467709544,0.000188499809 0.26355991,0.200375297 0.26355991,0.446179049 L0.26355991,11.7045187 C0.26355991,11.9503224 0.467709544,12.1505092 0.718700394,12.1505092 L4.88015211,12.1505092 C5.13114296,12.1505092 5.3352926,11.9503224 5.3352926,11.7045187 C5.3352926,11.4587149 5.13114296,11.2585281 4.88015211,11.2585281 L1.17384088,11.2585281 L1.17384088,0.892546598 L16.6525208,0.892546598 L16.6525208,5.51983992 L13.4282837,5.51983992 C13.1772929,5.51983992 12.9731432,5.72002672 12.9731432,5.96583047 L12.9731432,11.2585281 L10.1267587,11.2585281 C10.0338569,11.2585281 9.94446827,11.2856721 9.8683513,11.337321 L4.62135439,14.8867724 C4.41408201,15.0270163 4.36255667,15.305996 4.50659341,15.5088218 C4.644775,15.7025996 4.93870363,15.7561336 5.13855949,15.6207907 L10.2684534,12.1505092 Z" id="Fill-1" fill="#1D1D1B" mask="url(#mask-2)"></path>
                </g>
            </g>
        </g>
    </g>
</svg>