<?xml version="1.0" encoding="UTF-8"?>
<svg width="28px" height="28px" viewBox="0 0 28 28" version="1.1" xmlns="http://www.w3.org/2000/svg" xmlns:xlink="http://www.w3.org/1999/xlink">
    <!-- Generator: Sketch 42 (36781) - http://www.bohemiancoding.com/sketch -->
    <title>mas_off</title>
    <desc>Created with Sketch.</desc>
    <defs>
        <polygon id="path-1" points="4.08833125 0.357157534 7.00625 0.357157534 7.00625 5.95262556 4.08833125 5.95262556 1.1704125 5.95262556 1.1704125 0.357157534"></polygon>
    </defs>
    <g id="Symbols" stroke="none" stroke-width="1" fill="none" fill-rule="evenodd">
        <g id="Bottom-Bar/Tab-Bar-Sin-seleccion" transform="translate(-327.000000, -5.000000)">
            <g id="mas_off" transform="translate(327.000000, 5.000000)">
                <path d="M5.91804167,12.0241308 C4.78352083,12.0241308 3.86041667,12.9051194 3.86041667,13.9884972 C3.86041667,15.0718751 4.78352083,15.9528637 5.91804167,15.9528637 C7.0525625,15.9528637 7.9744375,15.0718751 7.9744375,13.9884972 C7.9744375,12.9051194 7.0525625,12.0241308 5.91804167,12.0241308 M5.91804167,16.7862312 C4.3090625,16.7862312 3,15.5314178 3,13.9884972 C3,12.4455767 4.3090625,11.1907632 5.91804167,11.1907632 C7.52702083,11.1907632 8.83608333,12.4455767 8.83608333,13.9884972 C8.83608333,15.5314178 7.52702083,16.7862312 5.91804167,16.7862312" id="Fill-1" fill="#000000"></path>
                <path d="M13.8782479,12.0241308 C12.7437271,12.0241308 11.8206229,12.9051194 11.8206229,13.9884972 C11.8206229,15.0718751 12.7437271,15.9528637 13.8782479,15.9528637 C15.0127687,15.9528637 15.9358729,15.0718751 15.9358729,13.9884972 C15.9358729,12.9051194 15.0127687,12.0241308 13.8782479,12.0241308 M13.8782479,16.7862312 C12.2692687,16.7862312 10.9602062,15.5314178 10.9602062,13.9884972 C10.9602062,12.4455767 12.2692687,11.1907632 13.8782479,11.1907632 C15.4872271,11.1907632 16.7962896,12.4455767 16.7962896,13.9884972 C16.7962896,15.5314178 15.4872271,16.7862312 13.8782479,16.7862312" id="Fill-3" fill="#000000"></path>
                <g id="Group-7" transform="translate(17.750000, 10.833606)">
                    <mask id="mask-2" fill="white">
                        <use xlink:href="#path-1"></use>
                    </mask>
                    <g id="Clip-6"></g>
                    <path d="M4.08845417,1.19052511 C2.95393333,1.19052511 2.03082917,2.0715137 2.03082917,3.15489155 C2.03082917,4.2382694 2.95393333,5.11925798 4.08845417,5.11925798 C5.222975,5.11925798 6.14607917,4.2382694 6.14607917,3.15489155 C6.14607917,2.0715137 5.222975,1.19052511 4.08845417,1.19052511 M4.08845417,5.95262556 C2.479475,5.95262556 1.1704125,4.69781209 1.1704125,3.15489155 C1.1704125,1.611971 2.479475,0.357157534 4.08845417,0.357157534 C5.69743333,0.357157534 7.00649583,1.611971 7.00649583,3.15489155 C7.00649583,4.69781209 5.69743333,5.95262556 4.08845417,5.95262556" id="Fill-5" fill="#000000" mask="url(#mask-2)"></path>
                </g>
            </g>
        </g>
    </g>
</svg>