<?xml version="1.0" encoding="UTF-8"?>
<svg width="28px" height="28px" viewBox="0 0 28 28" version="1.1" xmlns="http://www.w3.org/2000/svg" xmlns:xlink="http://www.w3.org/1999/xlink">
    <!-- Generator: Sketch 42 (36781) - http://www.bohemiancoding.com/sketch -->
    <title>perfil_ON</title>
    <desc>Created with Sketch.</desc>
    <defs>
        <polygon id="path-1" points="6.92537577e-16 20.6127935 6.92537577e-16 0.0621672371 18.0103696 0.0621672371 18.0103696 20.6127935 0 20.6127935"></polygon>
    </defs>
    <g id="Symbols" stroke="none" stroke-width="1" fill="none" fill-rule="evenodd">
        <g id="Bottom-Bar/Perfil-hover" transform="translate(-18.000000, -5.000000)">
            <g id="perfil_ON" transform="translate(23.000000, 8.000000)">
                <mask id="mask-2" fill="white">
                    <use xlink:href="#path-1"></use>
                </mask>
                <g id="Clip-27"></g>
                <path d="M9.00514575,11.201375 C6.38750245,11.201375 4.25817883,8.87038633 4.25817883,6.00556623 C4.25817883,3.14074612 6.38750245,0.809757481 9.00514575,0.809757481 C11.622789,0.809757481 13.7521127,3.14074612 13.7521127,6.00556623 C13.7521127,8.87038633 11.622789,11.201375 9.00514575,11.201375 M13.8902943,10.8228674 C13.6537461,10.7587774 13.1607423,10.5883736 13.0826736,10.3674518 C13.0034339,10.145022 13.3492782,9.89771029 13.4964377,9.70581749 C14.2997646,8.65851255 14.742414,7.34466887 14.742414,6.00556623 C14.742414,2.72830854 12.1684892,0.0621672371 9.00514575,0.0621672371 C5.84180228,0.0621672371 3.26787745,2.72830854 3.26787745,6.00556623 C3.26787745,7.34504587 3.71052694,8.65888955 4.51424414,9.70619449 C4.66140363,9.89808729 4.93113097,10.145399 4.85228159,10.3678288 C4.77382255,10.5887506 4.35693573,10.7591544 4.12038758,10.8232444 C1.65575892,11.4901567 -7.80686942e-05,13.4090847 -7.80686942e-05,15.5979445 L-7.80686942e-05,20.3926257 C-7.80686942e-05,20.5140196 0.10219192,20.6127935 0.22827286,20.6127935 L0.807932911,20.6127935 C0.933623508,20.6127935 1.0358935,20.5140196 1.0358935,20.3926257 L1.03550315,15.5979445 C1.03550315,13.2873139 3.22337829,11.4075938 5.91245445,11.4075938 L6.44956706,11.4075938 C6.55183705,11.4075938 6.65254566,11.4290827 6.74857016,11.4713067 C8.1830824,12.1054201 9.82681875,12.1054201 11.261331,11.4713067 C11.3577458,11.4290827 11.4584544,11.4075938 11.5607244,11.4075938 L12.097837,11.4075938 C14.7869132,11.4075938 16.974398,13.2873139 16.974398,15.5979445 L16.974398,20.3926257 C16.974398,20.5140196 17.076668,20.6127935 17.2023586,20.6127935 L17.7820186,20.6127935 C17.9080996,20.6127935 18.0103696,20.5140196 18.0103696,20.3926257 L18.0103696,15.5979445 C18.0103696,13.4075767 16.3545326,11.4886487 13.8902943,10.8228674" id="Fill-26" fill="#F24052" mask="url(#mask-2)"></path>
            </g>
        </g>
    </g>
</svg>