<?xml version="1.0" encoding="UTF-8"?>
<svg width="20px" height="20px" viewBox="0 0 20 20" version="1.1" xmlns="http://www.w3.org/2000/svg" xmlns:xlink="http://www.w3.org/1999/xlink">
    <!-- Generator: Sketch 42 (36781) - http://www.bohemiancoding.com/sketch -->
    <title>compartirInformacion_icon</title>
    <desc>Created with Sketch.</desc>
    <defs></defs>
    <g id="Diseño-visual-ok" stroke="none" stroke-width="1" fill="none" fill-rule="evenodd">
        <g id="Seleccionar-Plan" transform="translate(-18.000000, -1357.000000)" fill="#000000">
            <g id="premium" transform="translate(17.000000, 1127.000000)">
                <g id="compartirInformacion_icon" transform="translate(2.000000, 231.000000)">
                    <g id="Capa_1">
                        <path d="M11.817125,12.7918983 C11.6580536,12.9517627 11.5211429,13.1274915 11.40275,13.3132881 L6.15703571,10.1132542 C6.29576786,9.76423729 6.37439286,9.38471186 6.37439286,8.98657627 C6.37439286,8.58844068 6.29576786,8.20891525 6.15733929,7.85989831 L11.4042679,4.68427119 C11.9431071,5.53484746 12.8878214,6.10169492 13.9636786,6.10169492 C15.6375714,6.10169492 16.9993929,4.73308475 16.9993929,3.05084746 C16.9993929,1.36861017 15.6375714,0 13.9636786,0 C12.2897857,0 10.9279643,1.36861017 10.9279643,3.05084746 C10.9279643,3.4340339 11.0017321,3.79952542 11.1304464,4.13755932 L5.87653571,7.31745763 C5.33375,6.48640678 4.39935714,5.93572881 3.338375,5.93572881 C1.66448214,5.93572881 0.302660714,7.30433898 0.302660714,8.98657627 C0.302660714,10.6688136 1.66448214,12.0374237 3.338375,12.0374237 C4.39935714,12.0374237 5.33344643,11.4867458 5.87623214,10.6556949 L11.1292321,13.86 C10.9986964,14.2035254 10.9276607,14.5705424 10.9276607,14.9491525 C10.9276607,15.7640339 11.243375,16.5304068 11.8168214,17.1064068 C12.4084821,17.7010169 13.1859286,17.9984746 13.963375,17.9984746 C14.7408214,17.9984746 15.5182679,17.7010169 16.1099286,17.1064068 C16.683375,16.5301017 16.9990893,15.7640339 16.9990893,14.9491525 C16.9990893,14.1342712 16.683375,13.3678983 16.1099286,12.7918983 C14.9263036,11.6020678 13.00075,11.6020678 11.817125,12.7918983 Z M13.9636786,0.610169492 C15.3027321,0.610169492 16.39225,1.70511864 16.39225,3.05084746 C16.39225,4.39657627 15.3027321,5.49152542 13.9636786,5.49152542 C12.624625,5.49152542 11.5351071,4.39657627 11.5351071,3.05084746 C11.5351071,1.70511864 12.6243214,0.610169492 13.9636786,0.610169492 Z M3.33867857,11.4272542 C1.999625,11.4272542 0.910107143,10.3323051 0.910107143,8.98657627 C0.910107143,7.64084746 1.999625,6.54589831 3.33867857,6.54589831 C4.67773214,6.54589831 5.76725,7.64084746 5.76725,8.98657627 C5.76725,10.3323051 4.67773214,11.4272542 3.33867857,11.4272542 Z M15.6806786,16.6750169 C14.7338393,17.6265763 13.1932143,17.6265763 12.246375,16.6750169 C11.7876786,16.2140339 11.5351071,15.6008136 11.5351071,14.9491525 C11.5351071,14.2974915 11.7876786,13.6842712 12.246375,13.2232881 C12.7199464,12.7473559 13.3416607,12.5096949 13.9636786,12.5096949 C14.5856964,12.5096949 15.2074107,12.7473559 15.6809821,13.2232881 C16.1396786,13.6842712 16.39225,14.2974915 16.39225,14.9491525 C16.39225,15.6008136 16.1396786,16.2140339 15.6806786,16.6750169 Z" id="Shape"></path>
                    </g>
                </g>
            </g>
        </g>
    </g>
</svg>