<?xml version="1.0" encoding="UTF-8"?>
<svg width="20px" height="20px" viewBox="0 0 20 20" version="1.1" xmlns="http://www.w3.org/2000/svg" xmlns:xlink="http://www.w3.org/1999/xlink">
    <!-- Generator: Sketch 42 (36781) - http://www.bohemiancoding.com/sketch -->
    <title>informacionCompCancion_icon</title>
    <desc>Created with Sketch.</desc>
    <defs></defs>
    <g id="Diseño-visual-ok" stroke="none" stroke-width="1" fill="none" fill-rule="evenodd">
        <g id="Seleccionar-Plan" transform="translate(-19.000000, -1171.000000)" fill="#000000">
            <g id="premium" transform="translate(17.000000, 1127.000000)">
                <g id="informacionCompCancion_icon" transform="translate(2.000000, 44.000000)">
                    <g id="Capa_1">
                        <g id="Group">
                            <path d="M9.84646154,19.6926154 C12.4763077,19.6926154 14.9489231,18.6683077 16.8086154,16.8083077 C18.6686154,14.9486154 19.6929231,12.4763077 19.6929231,9.84646154 C19.6929231,7.21661538 18.6686154,4.74430769 16.8086154,2.88461538 C14.9489231,1.02461538 12.4763077,0.000307692308 9.84646154,0.000307692308 C7.21630769,0.000307692308 4.744,1.02461538 2.88430769,2.88461538 C1.02430769,4.74430769 0,7.21661538 0,9.84646154 C0,12.4763077 1.02430769,14.9486154 2.88430769,16.8083077 C4.744,18.6683077 7.21630769,19.6926154 9.84646154,19.6926154 Z M3.31938462,3.31969231 C5.06276923,1.576 7.38061538,0.615692308 9.84646154,0.615692308 C12.312,0.615692308 14.6301538,1.576 16.3735385,3.31969231 C18.1172308,5.06307692 19.0775385,7.38092308 19.0775385,9.84646154 C19.0775385,12.312 18.1172308,14.6298462 16.3735385,16.3732308 C14.6301538,18.1169231 12.312,19.0772308 9.84646154,19.0772308 C7.38061538,19.0772308 5.06276923,18.1169231 3.31938462,16.3732308 C1.57569231,14.6298462 0.615384615,12.312 0.615384615,9.84646154 C0.615384615,7.38092308 1.57569231,5.06307692 3.31938462,3.31969231 Z" id="Shape"></path>
                            <rect id="Rectangle-path" x="9.53876923" y="7.69261538" width="0.615384615" height="6.76923077"></rect>
                            <rect id="Rectangle-path" x="9.53876923" y="5.23107692" width="0.615384615" height="1.23076923"></rect>
                        </g>
                    </g>
                </g>
            </g>
        </g>
    </g>
</svg>