<?xml version="1.0" encoding="UTF-8"?>
<svg width="20px" height="20px" viewBox="0 0 20 20" version="1.1" xmlns="http://www.w3.org/2000/svg" xmlns:xlink="http://www.w3.org/1999/xlink">
    <!-- Generator: Sketch 42 (36781) - http://www.bohemiancoding.com/sketch -->
    <title>multiplesUsuarios</title>
    <desc>Created with Sketch.</desc>
    <defs></defs>
    <g id="Diseño-visual-ok" stroke="none" stroke-width="1" fill="none" fill-rule="evenodd">
        <g id="Seleccionar-Plan" transform="translate(-19.000000, -1414.000000)" stroke="#FFFFFF" stroke-width="0.4" fill="#000000">
            <g id="premium" transform="translate(17.000000, 1127.000000)">
                <g id="multiplesUsuarios" transform="translate(2.000000, 290.500000)">
                    <path d="M18.1349682,4.48927347 C18.4353503,4.02906122 18.6204459,3.4676898 18.6204459,2.85172245 C18.6204459,1.26073469 17.5121019,0.0107102041 16.0712102,0.0107102041 C14.6303185,0.0107102041 13.5219745,1.26073469 13.5219745,2.85172245 C13.5219745,3.46651429 13.7070701,4.02788571 14.0074522,4.48927347 C13.5851592,4.64039184 13.2094268,4.8938449 12.9101911,5.22795102 C12.9467516,5.01204898 12.9678344,4.78817959 12.9678344,4.55745306 C12.9678344,2.62556735 11.6377707,1.14821224 9.97528662,1.14821224 C8.31280255,1.14821224 6.98273885,2.62550204 6.98273885,4.55745306 C6.98273885,4.78817959 7.00382166,5.01198367 7.04038217,5.22795102 C6.74,4.8949551 6.36433121,4.64045714 5.94312102,4.48927347 C6.24350318,4.02906122 6.42859873,3.4676898 6.42859873,2.85172245 C6.42859873,1.26073469 5.32025478,0.0107102041 3.87936306,0.0107102041 C2.43847134,0.0107102041 1.33012739,1.26073469 1.33012739,2.85172245 C1.33012739,3.46651429 1.51522293,4.02788571 1.8156051,4.48927347 C0.77477707,4.86204082 0,5.88251429 0,7.05645714 L0,8.98834286 C0,9.32924082 0.221656051,9.55657143 0.554203822,9.55657143 C0.886751592,9.55657143 1.10840764,9.32930612 1.10840764,8.98834286 L1.10840764,7.05645714 C1.10840764,6.14733061 1.77343949,5.46546939 2.66012739,5.46546939 L2.88178344,5.46546939 L2.88178344,5.44953469 C3.19433121,5.60404898 3.53242038,5.69273469 3.87929936,5.69273469 C4.22617834,5.69273469 4.56426752,5.60411429 4.87681529,5.44953469 L4.87681529,5.46546939 L5.09847134,5.46546939 C5.98515924,5.46546939 6.65019108,6.14733061 6.65019108,7.05645714 C6.65019108,7.07918367 6.65904459,7.09622857 6.66019108,7.11666939 C5.85216561,7.71559184 5.32019108,8.6837551 5.32019108,9.78377143 L5.32019108,12.1702531 C5.32019108,12.511151 5.54184713,12.7384816 5.8743949,12.7384816 C6.20687898,12.7384816 6.42859873,12.5112163 6.42859873,12.1702531 L6.42859873,9.78377143 C6.42859873,8.64737959 7.42611465,7.62462041 8.5344586,7.62462041 L8.67414013,7.62462041 C9.06764331,7.83712653 9.50541401,7.96551837 9.97535032,7.96551837 C10.4452866,7.96551837 10.8819745,7.83712653 11.2765605,7.62462041 L11.416242,7.62462041 C12.524586,7.62462041 13.5221019,8.64737959 13.5221019,9.78377143 L13.5221019,12.1702531 C13.5221019,12.511151 13.743758,12.7384816 14.0763057,12.7384816 C14.4087898,12.7384816 14.6305096,12.5112163 14.6305096,12.1702531 L14.6305096,9.78377143 C14.6305096,8.68486531 14.0984713,7.71552653 13.2905096,7.11666939 C13.2927389,7.09505306 13.3005096,7.07800816 13.3005096,7.05645714 C13.3005096,6.14733061 13.9655414,5.46546939 14.8522293,5.46546939 L15.0738854,5.46546939 L15.0738854,5.44953469 C15.3864331,5.60404898 15.7245223,5.69273469 16.0714013,5.69273469 C16.4182803,5.69273469 16.7563694,5.60411429 17.0689172,5.44953469 L17.0689172,5.46546939 L17.2905732,5.46546939 C18.1772611,5.46546939 18.842293,6.14733061 18.842293,7.05645714 L18.842293,8.98834286 C18.842293,9.32924082 19.063949,9.55657143 19.3964968,9.55657143 C19.7290446,9.55657143 19.9507006,9.32930612 19.9507006,8.98834286 L19.9507006,7.05645714 C19.9504459,5.88140408 19.174586,4.86204082 18.1349682,4.48927347 L18.1349682,4.48927347 Z M2.43840764,2.85172245 C2.43840764,1.94259592 3.10343949,1.14710204 3.87923567,1.14710204 C4.65503185,1.14710204 5.32006369,1.94259592 5.32006369,2.85172245 C5.32006369,3.76084898 4.65503185,4.55634286 3.87923567,4.55634286 C3.10343949,4.55634286 2.43840764,3.76084898 2.43840764,2.85172245 Z M8.09101911,4.55634286 C8.09101911,3.30631837 8.97770701,2.28355918 9.97522293,2.28355918 C10.9727389,2.28355918 11.8594268,3.30631837 11.8594268,4.55634286 C11.8594268,5.80636735 11.0835669,6.82912653 9.97522293,6.82912653 C8.86687898,6.82912653 8.09101911,5.80636735 8.09101911,4.55634286 L8.09101911,4.55634286 Z M14.6303185,2.85172245 C14.6303185,1.94259592 15.2953503,1.14710204 16.0711465,1.14710204 C16.8469427,1.14710204 17.5119745,1.94259592 17.5119745,2.85172245 C17.5119745,3.76084898 16.8469427,4.55634286 16.0711465,4.55634286 C15.2953503,4.55634286 14.6303185,3.76084898 14.6303185,2.85172245 Z" id="Shape"></path>
                </g>
            </g>
        </g>
    </g>
</svg>