<?xml version="1.0" encoding="UTF-8"?>
<svg width="20px" height="20px" viewBox="0 0 20 20" version="1.1" xmlns="http://www.w3.org/2000/svg" xmlns:xlink="http://www.w3.org/1999/xlink">
    <!-- Generator: Sketch 42 (36781) - http://www.bohemiancoding.com/sketch -->
    <title>reconocimientoMusica_icon</title>
    <desc>Created with Sketch.</desc>
    <defs></defs>
    <g id="Diseño-visual-ok" stroke="none" stroke-width="1" fill="none" fill-rule="evenodd">
        <g id="Seleccionar-Plan" transform="translate(-19.000000, -1127.000000)" fill="#000000">
            <g id="premium" transform="translate(17.000000, 1127.000000)">
                <g id="reconocimientoMusica_icon" transform="translate(2.000000, 2.068966)">
                    <g id="Capa_1">
                        <g id="Group">
                            <path d="M9.468,0.580948276 C9.143,0.398534483 8.75766667,0.404482759 8.438,0.595488506 C8.42266667,0.60441092 8.408,0.614985632 8.39466667,0.626221264 L3.878,4.41428161 L0.333333333,4.41428161 C0.149,4.41428161 0,4.56199713 0,4.74474138 L0,11.023477 C0,11.1113793 0.035,11.1953161 0.0976666667,11.2571121 C0.160333333,11.318908 0.244666667,11.3539368 0.333333333,11.3539368 L3.87,11.3522845 L8.38433333,15.463204 C8.401,15.4784052 8.419,15.4916236 8.438,15.5028592 C8.602,15.6010057 8.78366667,15.6502443 8.96533333,15.6502443 C9.13766667,15.6499138 9.30966667,15.6059626 9.468,15.5173994 C9.801,15.3310201 10,14.9906466 10,14.6066523 L10,1.4916954 C10,1.10803161 9.801,0.767658046 9.468,0.580948276 Z M9.33333333,14.6066523 C9.33333333,14.7490805 9.261,14.8743247 9.14033333,14.942069 C9.08866667,14.970819 8.95766667,15.0263362 8.807,14.9506609 L4.33333333,10.8764224 L4.33333333,9.3708477 C4.33333333,9.18810345 4.18433333,9.04038793 4,9.04038793 C3.81566667,9.04038793 3.66666667,9.18810345 3.66666667,9.3708477 L3.66666667,10.6913649 L0.666666667,10.6926868 L0.666666667,5.07487069 L3.66666667,5.07487069 L3.66666667,6.39670977 C3.66666667,6.57945402 3.81566667,6.72716954 4,6.72716954 C4.18433333,6.72716954 4.33333333,6.57945402 4.33333333,6.39670977 L4.33333333,4.89774425 L8.80166667,1.15033046 C8.95533333,1.0703592 9.08866667,1.12719828 9.14033333,1.15627874 C9.261,1.22402299 9.33333333,1.34926724 9.33333333,1.4916954 L9.33333333,14.6066523 Z" id="Shape"></path>
                            <path d="M17.342,7.8841092 C17.342,5.12576149 15.57,2.67606322 12.9323333,1.78811782 C12.7583333,1.72962644 12.5686667,1.82215517 12.5093333,1.99498563 C12.4503333,2.16748563 12.5436667,2.35551724 12.718,2.41433908 C15.085,3.21107759 16.6753333,5.40929598 16.6753333,7.88443966 C16.6753333,10.3572701 15.088,12.555819 12.7256667,13.3548707 C12.5516667,13.4136925 12.4583333,13.6013937 12.518,13.7745546 C12.5653333,13.9116954 12.6946667,13.9982759 12.8333333,13.9982759 C12.869,13.9982759 12.9053333,13.992658 12.941,13.980431 C15.5736667,13.089842 17.342,10.6401437 17.342,7.8841092 Z" id="Shape"></path>
                            <path d="M14.8176667,0.123591954 C14.6483333,0.053204023 14.4526667,0.130531609 14.3803333,0.298735632 C14.3086667,0.466939655 14.3876667,0.66091954 14.5573333,0.732298851 C17.4586667,1.95268678 19.3333333,4.76027299 19.3333333,7.8841092 C19.3333333,11.1150144 17.3686667,13.9579598 14.3283333,15.1258046 C14.1566667,15.1918966 14.0713333,15.3832328 14.138,15.5534195 C14.189,15.6842816 14.3153333,15.7645833 14.449,15.7645833 C14.489,15.7645833 14.5296667,15.7576437 14.5693333,15.7424425 C17.8683333,14.4744684 20,11.3899569 20,7.8841092 C20,4.49425287 17.9656667,1.44807471 14.8176667,0.123591954 Z" id="Shape"></path>
                            <path d="M14.342,7.8841092 C14.342,5.91060345 13.0056667,4.14925287 11.0923333,3.60068966 C10.9156667,3.55079023 10.731,3.65091954 10.6796667,3.82672414 C10.6286667,4.00186782 10.7303333,4.18527299 10.9076667,4.23583333 C12.5373333,4.70277299 13.6756667,6.20306034 13.6756667,7.8841092 C13.6756667,9.56515805 12.5373333,11.0654454 10.9076667,11.5323851 C10.7306667,11.5829454 10.6286667,11.7663506 10.6796667,11.9414943 C10.722,12.0862356 10.855,12.1804167 11,12.1804167 C11.0306667,12.1804167 11.0616667,12.1761207 11.0923333,12.1675287 C13.006,11.6186351 14.342,9.85728448 14.342,7.8841092 Z" id="Shape"></path>
                        </g>
                    </g>
                </g>
            </g>
        </g>
    </g>
</svg>