<?xml version="1.0" encoding="UTF-8"?>
<svg width="20px" height="20px" viewBox="0 0 20 20" version="1.1" xmlns="http://www.w3.org/2000/svg" xmlns:xlink="http://www.w3.org/1999/xlink">
    <!-- Generator: Sketch 42 (36781) - http://www.bohemiancoding.com/sketch -->
    <title>usuarioAdministrador_icon</title>
    <desc>Created with Sketch.</desc>
    <defs></defs>
    <g id="Diseño-visual-ok" stroke="none" stroke-width="1" fill="none" fill-rule="evenodd">
        <g id="Seleccionar-Plan" transform="translate(-17.000000, -1307.000000)" stroke="#FFFFFF" fill="#000000">
            <g id="premium" transform="translate(17.000000, 1127.000000)">
                <g id="usuarioAdministrador_icon" transform="translate(3.000000, 180.970588)">
                    <path d="M11.385,6.29959664 C11.4398408,5.96621849 11.471465,5.62053782 11.471465,5.26426891 C11.471465,2.28121008 9.47636943,-1.77635684e-15 6.98264331,-1.77635684e-15 C4.4889172,-1.77635684e-15 2.49382166,2.28110924 2.49382166,5.26426891 C2.49382166,5.62053782 2.52544586,5.96611765 2.58028662,6.29959664 C3.11654565,8.29762404 3.78597924,8.52287069 2.92849633,8.92096352 C2.89370726,8.93711461 1.92326707,9.37184302 1.92498681,9.40340604 C0.712948597,10.3282128 -8.8817842e-16,11.6357647 -8.8817842e-16,13.3343193 L-8.8817842e-16,17.0193277 C-8.8817842e-16,17.5457143 0.332484076,17.8967395 0.831305732,17.8967395 C1.33003185,17.8967395 1.66261146,17.5458151 1.66261146,17.0193277 L1.66261146,13.3343193 C1.66261146,11.5795966 3.15888535,10.0003361 4.82140127,10.0003361 L5.03092357,10.0003361 C5.62117834,10.3284706 6.27783439,10.5267227 6.98273885,10.5267227 C7.68764331,10.5267227 8.34267516,10.3284706 8.93455414,10.0003361 L9.14407643,10.0003361 C10.8065924,10.0003361 12.3028662,11.5795966 12.3028662,13.3343193 L12.3028662,17.0193277 C12.3028662,17.5457143 12.6353503,17.8967395 13.134172,17.8967395 C13.6328981,17.8967395 13.9654777,17.5458151 13.9654777,17.0193277 L13.9654777,13.3343193 C13.9654777,11.637479 13.6139822,10.3819567 12.5828237,9.57229391 C11.5516653,8.76263115 11.6661062,9.04847763 11.190856,8.70353924 C10.8184896,8.43327433 10.550353,8.66942238 11.385,6.29959664 Z M4.15624204,5.26255462 C4.15624204,3.33236975 5.48627389,1.75310924 6.98254777,1.75310924 C8.47882166,1.75310924 9.8088535,3.33236975 9.8088535,5.26255462 C9.8088535,7.1927395 8.64506369,8.772 6.98254777,8.772 C5.32003185,8.772 4.15624204,7.1927395 4.15624204,5.26255462 L4.15624204,5.26255462 Z" id="Shape"></path>
                </g>
            </g>
        </g>
    </g>
</svg>