<?xml version="1.0" encoding="UTF-8"?>
<svg width="20px" height="20px" viewBox="0 0 20 20" version="1.1" xmlns="http://www.w3.org/2000/svg" xmlns:xlink="http://www.w3.org/1999/xlink">
    <!-- Generator: Sketch 42 (36781) - http://www.bohemiancoding.com/sketch -->
    <title>agregarComent_icon</title>
    <desc>Created with Sketch.</desc>
    <defs></defs>
    <g id="Diseño-visual-ok" stroke="none" stroke-width="1" fill="none" fill-rule="evenodd">
        <g id="Seleccionar-Plan" transform="translate(-19.000000, -857.000000)" fill="#222224">
            <g id="corporate_plan" transform="translate(18.000000, 526.000000)">
                <g id="agregarComent_icon" transform="translate(1.000000, 334.000000)">
                    <g id="Capa_1">
                        <path d="M19.5093028,4.28317134 L13.3522902,4.28317134 L13.3522902,0.49553765 C13.3522902,0.223830364 13.1325301,0.00355197887 12.8614621,0.00355197887 L0.490828058,0.00355197887 C0.219760083,0.00355197887 0,0.223830364 0,0.49553765 L0,9.22434744 C0,9.49605472 0.219760083,9.71633311 0.490828058,9.71633311 L3.63186586,9.71633311 C3.90293383,9.71633311 4.12269391,9.49605472 4.12269391,9.22434744 C4.12269391,8.95264015 3.90293383,8.73236176 3.63186586,8.73236176 L0.981656116,8.73236176 L0.981656116,0.987523322 L12.370634,0.987523322 L12.370634,4.28310574 L10.0840952,4.28310574 C9.8130272,4.28310574 9.59326712,4.50338413 9.59326712,4.77509141 L9.59326712,8.73236176 L7.5921284,8.73236176 C7.49219581,8.73236176 7.39461919,8.76293047 7.3124873,8.82006641 L3.35222475,11.5719063 C3.12945426,11.7267178 3.07402341,12.033192 3.22847064,12.2564879 C3.32375672,12.3943095 3.47676419,12.468173 3.63225852,12.468173 C3.72872259,12.468173 3.82616832,12.439769 3.91144152,12.3804683 L7.74552853,9.71626751 L9.59326712,9.71626751 L9.59326712,11.3216496 C9.59326712,11.5933568 9.8130272,11.8136352 10.0840952,11.8136352 L14.0298292,11.8136352 L16.8738833,13.7898433 C16.9591565,13.8491439 17.0566022,13.8775479 17.1530663,13.8775479 C17.3085606,13.8775479 17.4615681,13.8036189 17.5568542,13.6657973 C17.7113014,13.4425014 17.655936,13.1359615 17.4331001,12.98115 L14.4628705,10.9172373 C14.3807386,10.860167 14.2831619,10.8295983 14.1832293,10.8295983 L10.5747923,10.8295983 L10.5747923,5.26694589 L19.0183438,5.26694589 L19.0183438,10.8295983 L17.153459,10.8295983 C16.882391,10.8295983 16.6626309,11.0498767 16.6626309,11.321584 C16.6626309,11.5932912 16.882391,11.8135696 17.153459,11.8135696 L19.5091719,11.8135696 C19.7802399,11.8135696 19.9999999,11.5932912 19.9999999,11.321584 L19.9999999,4.77496022 C20.0001308,4.50344973 19.7803707,4.28317134 19.5093028,4.28317134 Z" id="Shape"></path>
                    </g>
                </g>
            </g>
        </g>
    </g>
</svg>