<?xml version="1.0" encoding="UTF-8"?>
<svg width="20px" height="20px" viewBox="0 0 20 20" version="1.1" xmlns="http://www.w3.org/2000/svg" xmlns:xlink="http://www.w3.org/1999/xlink">
    <!-- Generator: Sketch 42 (36781) - http://www.bohemiancoding.com/sketch -->
    <title>compartirInfoEquipo_icon</title>
    <desc>Created with Sketch.</desc>
    <defs></defs>
    <g id="Diseño-visual-ok" stroke="none" stroke-width="1" fill="none" fill-rule="evenodd">
        <g id="Seleccionar-Plan" transform="translate(-19.000000, -757.000000)" fill="#000000">
            <g id="corporate_plan" transform="translate(18.000000, 526.000000)">
                <g id="compartirInfoEquipo_icon" transform="translate(3.000000, 232.000000)">
                    <g id="Capa_1">
                        <path d="M11.5144643,12.7918983 C11.3553929,12.9517627 11.2184821,13.1274915 11.1000893,13.3132881 L5.854375,10.1132542 C5.99310714,9.76423729 6.07173214,9.38471186 6.07173214,8.98657627 C6.07173214,8.58844068 5.99310714,8.20891525 5.85467857,7.85989831 L11.1016071,4.68427119 C11.6404464,5.53484746 12.5851607,6.10169492 13.6610179,6.10169492 C15.3349107,6.10169492 16.6967321,4.73308475 16.6967321,3.05084746 C16.6967321,1.36861017 15.3349107,0 13.6610179,0 C11.987125,0 10.6253036,1.36861017 10.6253036,3.05084746 C10.6253036,3.4340339 10.6990714,3.79952542 10.8277857,4.13755932 L5.573875,7.31745763 C5.03108929,6.48640678 4.09669643,5.93572881 3.03571429,5.93572881 C1.36182143,5.93572881 0,7.30433898 0,8.98657627 C0,10.6688136 1.36182143,12.0374237 3.03571429,12.0374237 C4.09669643,12.0374237 5.03078571,11.4867458 5.57357143,10.6556949 L10.8265714,13.86 C10.6960357,14.2035254 10.625,14.5705424 10.625,14.9491525 C10.625,15.7640339 10.9407143,16.5304068 11.5141607,17.1064068 C12.1058214,17.7010169 12.8832679,17.9984746 13.6607143,17.9984746 C14.4381607,17.9984746 15.2156071,17.7010169 15.8072679,17.1064068 C16.3807143,16.5301017 16.6964286,15.7640339 16.6964286,14.9491525 C16.6964286,14.1342712 16.3807143,13.3678983 15.8072679,12.7918983 C14.6236429,11.6020678 12.6980893,11.6020678 11.5144643,12.7918983 Z M13.6610179,0.610169492 C15.0000714,0.610169492 16.0895893,1.70511864 16.0895893,3.05084746 C16.0895893,4.39657627 15.0000714,5.49152542 13.6610179,5.49152542 C12.3219643,5.49152542 11.2324464,4.39657627 11.2324464,3.05084746 C11.2324464,1.70511864 12.3216607,0.610169492 13.6610179,0.610169492 Z M3.03601786,11.4272542 C1.69696429,11.4272542 0.607446429,10.3323051 0.607446429,8.98657627 C0.607446429,7.64084746 1.69696429,6.54589831 3.03601786,6.54589831 C4.37507143,6.54589831 5.46458929,7.64084746 5.46458929,8.98657627 C5.46458929,10.3323051 4.37507143,11.4272542 3.03601786,11.4272542 Z M15.3780179,16.6750169 C14.4311786,17.6265763 12.8905536,17.6265763 11.9437143,16.6750169 C11.4850179,16.2140339 11.2324464,15.6008136 11.2324464,14.9491525 C11.2324464,14.2974915 11.4850179,13.6842712 11.9437143,13.2232881 C12.4172857,12.7473559 13.039,12.5096949 13.6610179,12.5096949 C14.2830357,12.5096949 14.90475,12.7473559 15.3783214,13.2232881 C15.8370179,13.6842712 16.0895893,14.2974915 16.0895893,14.9491525 C16.0895893,15.6008136 15.8370179,16.2140339 15.3780179,16.6750169 Z" id="Shape"></path>
                    </g>
                </g>
            </g>
        </g>
    </g>
</svg>