<?xml version="1.0" encoding="UTF-8"?>
<svg width="20px" height="20px" viewBox="0 0 20 20" version="1.1" xmlns="http://www.w3.org/2000/svg" xmlns:xlink="http://www.w3.org/1999/xlink">
    <!-- Generator: Sketch 42 (36781) - http://www.bohemiancoding.com/sketch -->
    <title>consultasGenerales_icon</title>
    <desc>Created with Sketch.</desc>
    <defs></defs>
    <g id="Diseño-visual-ok" stroke="none" stroke-width="1" fill="none" fill-rule="evenodd">
        <g id="Seleccionar-Plan" transform="translate(-20.000000, -660.000000)" stroke-width="0.6" stroke="#FFFFFF" fill="#000000">
            <g id="corporate_plan" transform="translate(18.000000, 526.000000)">
                <g id="consultasGenerales_icon" transform="translate(6.000000, 134.000000)">
                    <g id="Capa_1">
                        <g id="Group">
                            <path d="M4.86377953,18.3884729 C4.43474409,18.3884729 4.08769685,18.7373399 4.08769685,19.1642365 C4.08769685,19.5939901 4.43464567,19.9431527 4.86377953,19.9431527 C5.29261811,19.9431527 5.6398622,19.5939901 5.6398622,19.1642365 C5.6398622,18.7373399 5.29271654,18.3884729 4.86377953,18.3884729 Z" id="Shape"></path>
                            <path d="M6.22165354,0 C2.80688976,0 0.0287401575,2.7808867 0.0287401575,6.19901478 C0.0287401575,6.6070936 0.359251969,6.93793103 0.766929134,6.93793103 C1.1746063,6.93793103 1.50511811,6.6070936 1.50511811,6.19901478 C1.50511811,3.59576355 3.62096457,1.47783251 6.22165354,1.47783251 C8.82224409,1.47783251 10.9379921,3.59576355 10.9379921,6.19901478 C10.9379921,8.80246305 8.82224409,10.9204926 6.22165354,10.9204926 C6.19616142,10.9204926 6.17086614,10.9217734 6.14596457,10.924335 C5.05068898,10.9637438 4.16879921,11.8465025 4.12942913,12.9427586 C4.12687008,12.9676847 4.12559055,12.9929064 4.12559055,13.0185222 L4.12559055,16.0650246 C4.12559055,16.4731034 4.45610236,16.8039409 4.86377953,16.8039409 C5.27145669,16.8039409 5.6019685,16.4731034 5.6019685,16.0650246 L5.6019685,13.0185222 C5.6019685,12.6765517 5.87992126,12.3983251 6.22165354,12.3983251 C9.6363189,12.3983251 12.4143701,9.6173399 12.4143701,6.19901478 C12.4143701,2.7808867 9.63641732,0 6.22165354,0 Z" id="Shape"></path>
                        </g>
                    </g>
                </g>
            </g>
        </g>
    </g>
</svg>