<?xml version="1.0" encoding="UTF-8"?>
<svg width="17px" height="17px" viewBox="0 0 17 17" version="1.1" xmlns="http://www.w3.org/2000/svg" xmlns:xlink="http://www.w3.org/1999/xlink">
    <!-- Generator: Sketch 42 (36781) - http://www.bohemiancoding.com/sketch -->
    <title>Fill 1</title>
    <desc>Created with Sketch.</desc>
    <defs></defs>
    <g id="Diseño-visual-ok" stroke="none" stroke-width="1" fill="none" fill-rule="evenodd">
        <g id="Seleccionar-Plan" transform="translate(-20.000000, -968.000000)" fill="#1D1C1B">
            <g id="corporate_plan" transform="translate(18.000000, 526.000000)">
                <g id="llamadasDirect_icon" transform="translate(2.000000, 442.000000)">
                    <path d="M16.2469565,13.2326522 C14.9077826,15.1144783 13.6764783,16.3075652 13.0991739,16.3075652 C8.82778261,16.3075652 0.723521739,8.20313043 0.723521739,3.93191304 C0.723521739,3.31621739 1.88178261,2.12313043 3.79821739,0.783956522 C3.98269565,0.66573913 4.21569565,0.67273913 4.41391304,0.891826087 L5.96873913,2.44665217 C6.19121739,2.68326087 6.08,3.03804348 5.93391304,3.17017391 C4.7026087,4.29365217 4.48691304,4.79786957 4.41391304,5.0866087 C4.16,6.42578261 4.74082609,8.08830435 6.00695652,9.64673913 C7.49217391,11.4553478 9.55486957,12.6484348 11.2522174,12.6484348 C11.5061304,12.6484348 11.7218261,12.6136087 11.940913,12.5753913 C12.2296087,12.5023913 12.7374348,12.2866957 13.8573478,11.0553478 C14.0382174,10.8396522 14.3999565,10.8396522 14.5808261,11.0205652 L16.173913,12.6136087 C16.3547826,12.7632609 16.393,13.0517826 16.2469565,13.2326522 M16.6435217,12.0745652 L15.0886522,10.5196957 C14.6190435,10.050087 13.7843043,10.084913 13.353087,10.5545217 C12.3408696,11.678 11.940913,11.8206522 11.8330435,11.8588696 C11.6521739,11.8936957 11.4713043,11.8936957 11.2904348,11.8936957 C9.8433913,11.8936957 7.9233913,10.8084348 6.58782609,9.14230435 C5.46434783,7.76834783 4.92169565,6.28313043 5.14078261,5.16321739 C5.1756087,5.09017391 5.32165217,4.6553913 6.44513043,3.64317391 C6.69904348,3.42747826 6.84169565,3.10052174 6.84169565,2.7736087 C6.84169565,2.44665217 6.69565217,2.12313043 6.47995652,1.90404348 L4.92526087,0.349173913 C4.52869565,-0.0472173913 3.87482609,-0.12026087 3.40521739,0.203130435 C1.84695652,1.3266087 0,2.84665217 0,3.93191304 C0,8.56486957 8.4313913,16.9962609 13.0643478,16.9962609 C14.1878261,16.9962609 15.7043043,15.1493043 16.7929565,13.5944348 C17.1165217,13.125 17.0434783,12.4745217 16.6435217,12.0745652" id="Fill-1"></path>
                </g>
            </g>
        </g>
    </g>
</svg>