<?xml version="1.0" encoding="UTF-8"?>
<svg width="20px" height="20px" viewBox="0 0 20 20" version="1.1" xmlns="http://www.w3.org/2000/svg" xmlns:xlink="http://www.w3.org/1999/xlink">
    <!-- Generator: Sketch 42 (36781) - http://www.bohemiancoding.com/sketch -->
    <title>gestionLicencias_icon</title>
    <desc>Created with Sketch.</desc>
    <defs></defs>
    <g id="Diseño-visual-ok" stroke="none" stroke-width="1" fill="none" fill-rule="evenodd">
        <g id="Seleccionar-Plan" transform="translate(-19.000000, -920.000000)" fill="#000000">
            <g id="corporate_plan" transform="translate(18.000000, 526.000000)">
                <g id="gestionLicencias_icon" transform="translate(1.000000, 396.000000)">
                    <g id="Capa_1">
                        <g id="Group">
                            <path d="M14.6146667,2.33766667 L8.28133333,3.33766667 C8.11933333,3.363 8,3.50266667 8,3.66666667 L8,4.762 L8,5.66666667 L8,10.2266667 C7.61033333,9.88066667 7.082,9.66666667 6.5,9.66666667 C5.30533333,9.66666667 4.33333333,10.5636667 4.33333333,11.6666667 C4.33333333,12.7696667 5.30533333,13.6666667 6.5,13.6666667 C7.67766667,13.6666667 8.637,12.7943333 8.664,11.713 C8.66433333,11.7086667 8.66666667,11.705 8.66666667,11.7006667 L8.66666667,5.95133333 L14.3333333,5.05666667 L14.3333333,8.227 C13.9436667,7.88066667 13.4153333,7.66666667 12.8333333,7.66666667 C11.6386667,7.66666667 10.6666667,8.56366667 10.6666667,9.66666667 C10.6666667,10.7696667 11.6386667,11.6666667 12.8333333,11.6666667 C14.028,11.6666667 15,10.7696667 15,9.66666667 L15,4.66666667 L15,3 L15,2.66666667 C15,2.56933333 14.9573333,2.47666667 14.883,2.41333333 C14.809,2.35 14.7113333,2.32233333 14.6146667,2.33766667 Z M6.5,13 C5.673,13 5,12.402 5,11.6666667 C5,10.9313333 5.673,10.3333333 6.5,10.3333333 C7.327,10.3333333 8,10.9313333 8,11.6666667 C8,12.402 7.327,13 6.5,13 Z M8.66666667,5.27666667 L8.66666667,4.762 L8.66666667,3.95133333 L14.3333333,3.05633333 L14.3333333,4.38166667 L8.66666667,5.27666667 Z M12.8333333,11 C12.0063333,11 11.3333333,10.402 11.3333333,9.66666667 C11.3333333,8.93133333 12.0063333,8.33333333 12.8333333,8.33333333 C13.6603333,8.33333333 14.3333333,8.93133333 14.3333333,9.66666667 C14.3333333,10.402 13.6603333,11 12.8333333,11 Z" id="Shape"></path>
                            <path d="M20,2.66666667 L18.6666667,2.66666667 L18.6666667,1.33333333 L17.3333333,1.33333333 L17.3333333,0 L2.66666667,0 L2.66666667,1.33333333 L1.33333333,1.33333333 L1.33333333,2.66666667 L0,2.66666667 L0,13.3333333 L1.33333333,13.3333333 L1.33333333,14.6666667 L2.66666667,14.6666667 L2.66666667,16 L17.3333333,16 L17.3333333,14.6666667 L18.6666667,14.6666667 L18.6666667,13.3333333 L20,13.3333333 L20,2.66666667 Z M0.666666667,12.6666667 L0.666666667,3.33333333 L1.33333333,3.33333333 L1.33333333,12.6666667 L0.666666667,12.6666667 Z M2,14 L2,13.3333333 L2,2.66666667 L2,2 L2.66666667,2 L2.66666667,14 L2,14 Z M16.6666667,15.3333333 L3.33333333,15.3333333 L3.33333333,14.6666667 L3.33333333,1.33333333 L3.33333333,0.666666667 L16.6666667,0.666666667 L16.6666667,1.33333333 L16.6666667,14.6666667 L16.6666667,15.3333333 Z M18,14 L17.3333333,14 L17.3333333,2 L18,2 L18,2.66666667 L18,13.3333333 L18,14 Z M19.3333333,12.6666667 L18.6666667,12.6666667 L18.6666667,3.33333333 L19.3333333,3.33333333 L19.3333333,12.6666667 Z" id="Shape"></path>
                        </g>
                    </g>
                </g>
            </g>
        </g>
    </g>
</svg>