<?xml version="1.0" encoding="UTF-8"?>
<svg width="28px" height="28px" viewBox="0 0 28 28" version="1.1" xmlns="http://www.w3.org/2000/svg" xmlns:xlink="http://www.w3.org/1999/xlink">
    <!-- Generator: Sketch 42 (36781) - http://www.bohemiancoding.com/sketch -->
    <title>historial_ON</title>
    <desc>Created with Sketch.</desc>
    <defs>
        <polygon id="path-1" points="0.129599211 0.36644363 23.469323 0.36644363 23.469323 20.8917732 0.129599211 20.8917732"></polygon>
    </defs>
    <g id="Symbols" stroke="none" stroke-width="1" fill="none" fill-rule="evenodd">
        <g id="Bottom-Bar/Historial-hover" transform="translate(-94.000000, -5.000000)">
            <g id="historial_ON" transform="translate(94.000000, 5.000000)">
                <g id="Group-13" transform="translate(2.000000, 3.000000)">
                    <mask id="mask-2" fill="white">
                        <use xlink:href="#path-1"></use>
                    </mask>
                    <g id="Clip-12"></g>
                    <path d="M12.9085804,1.24179904 C18.2367688,1.24179904 22.5719233,5.45288479 22.5719233,10.6294666 C22.5719233,15.8052943 18.2367688,20.0163801 12.9085804,20.0163801 C12.6611027,20.0163801 12.4600758,20.2127969 12.4600758,20.4536996 C12.4600758,20.6953564 12.6611027,20.8917732 12.9085804,20.8917732 C18.7317243,20.8917732 23.469323,16.2878538 23.469323,10.6294666 C23.4685423,4.97070227 18.7309436,0.36640593 12.9081901,0.36640593 C10.0938137,0.36640593 7.44338153,1.43369185 5.44482297,3.37146989 C3.44743544,5.30849393 2.34783789,7.87510734 2.34822824,10.5989296 C2.34705721,10.6287126 2.27796641,12.145382 2.72803243,13.8007873 L2.92008142,14.5069076 L0.803639133,13.3080488 C0.587388851,13.186278 0.318051858,13.2560229 0.1900192,13.4667657 C0.0662803209,13.6744925 0.138493863,13.9432932 0.352792427,14.0646871 L3.78820529,16.0073661 C3.8178714,16.0224461 3.84051132,16.0303631 3.86432227,16.0382801 C3.89008494,16.0469511 3.90218559,16.0518521 3.91467658,16.0548681 C3.92482551,16.0567531 3.94043925,16.0571301 3.95644333,16.0586381 C3.97947359,16.0609001 3.99547767,16.0627851 4.0091397,16.0650471 C4.01694657,16.0639161 4.02475343,16.0631621 4.0325603,16.0627851 L4.05637126,16.0616541 L4.06730087,16.0627851 C4.11219037,16.0514751 4.13209789,16.0469511 4.15200541,16.0409191 C4.16527708,16.0367721 4.18206185,16.0303631 4.19845628,16.0224461 C4.21758311,16.0133981 4.23436788,16.0043501 4.25115265,15.9934171 C4.27145051,15.9809761 4.28628356,15.9700432 4.30033592,15.9587332 C4.31438829,15.9470462 4.328831,15.9323432 4.3432737,15.9168862 C4.35693573,15.9018062 4.367475,15.8878572 4.37762393,15.8731543 L4.39089561,15.8546813 C4.39362801,15.8490263 4.39597007,15.8429943 4.39909282,15.8369623 L4.43422373,15.7773963 L5.79222866,12.5099407 C5.88513041,12.2856259 5.77427286,12.0296431 5.54436056,11.9395402 C5.4342837,11.8961853 5.31249654,11.8976933 5.20241968,11.9429332 C5.09234282,11.9881732 5.00646726,12.0726211 4.9619681,12.18082 L3.92677722,14.6709025 L3.67110225,13.8411263 C3.19215082,12.2844949 3.24289547,10.6863935 3.24562787,10.6192876 C3.24523753,5.45288479 7.58039209,1.24179904 12.9085804,1.24179904" id="Fill-11" fill="#F24052" mask="url(#mask-2)"></path>
                </g>
                <path d="M14.6653626,15.4483985 L14.6899543,15.4570695 C14.7219625,15.4702645 14.7649002,15.4778045 14.8300876,15.4819515 L14.8870777,15.4898684 C14.9233797,15.4868525 14.9639754,15.4770505 15.0092552,15.4608395 L15.0459475,15.4431205 C15.0861529,15.4242705 15.1197224,15.4024045 15.152121,15.3748836 L15.2005235,15.3398226 L19.9268023,10.7479672 C20.1028472,10.5768094 20.1028472,10.2985837 19.9268023,10.1278029 C19.8420977,10.04524 19.7300692,10 19.6106241,10 L19.6102337,10 C19.491179,10 19.3783697,10.04524 19.2932748,10.1278029 L14.755532,14.5368134 L10.6217947,12.8546411 C10.5113275,12.8101552 10.3895403,12.8094012 10.2798538,12.8527561 C10.1686059,12.8968651 10.0819496,12.980936 10.0351084,13.0891349 C9.93908393,13.3119417 10.0468187,13.5694324 10.27556,13.6625513 L14.6653626,15.4483985 Z" id="Fill-20" fill="#F24052"></path>
            </g>
        </g>
    </g>
</svg>