<?xml version="1.0" encoding="UTF-8"?>
<svg width="28px" height="28px" viewBox="0 0 28 28" version="1.1" xmlns="http://www.w3.org/2000/svg" xmlns:xlink="http://www.w3.org/1999/xlink">
    <!-- Generator: Sketch 42 (36781) - http://www.bohemiancoding.com/sketch -->
    <title>mas_ON</title>
    <desc>Created with Sketch.</desc>
    <defs>
        <polygon id="path-1" points="3.08833125 0.357157534 6.00625 0.357157534 6.00625 5.95262556 3.08833125 5.95262556 0.1704125 5.95262556 0.1704125 0.357157534"></polygon>
    </defs>
    <g id="Symbols" stroke="none" stroke-width="1" fill="none" fill-rule="evenodd">
        <g id="Bottom-Bar/Mas-hover" transform="translate(-327.000000, -5.000000)">
            <g id="mas_ON" transform="translate(330.000000, 15.000000)">
                <path d="M2.91804167,2.0241308 C1.78352083,2.0241308 0.860416667,2.90511938 0.860416667,3.98849723 C0.860416667,5.07187508 1.78352083,5.95286367 2.91804167,5.95286367 C4.0525625,5.95286367 4.9744375,5.07187508 4.9744375,3.98849723 C4.9744375,2.90511938 4.0525625,2.0241308 2.91804167,2.0241308 M2.91804167,6.78623124 C1.3090625,6.78623124 0,5.53141778 0,3.98849723 C0,2.44557669 1.3090625,1.19076322 2.91804167,1.19076322 C4.52702083,1.19076322 5.83608333,2.44557669 5.83608333,3.98849723 C5.83608333,5.53141778 4.52702083,6.78623124 2.91804167,6.78623124" id="Fill-1" fill="#F24052"></path>
                <path d="M10.8782479,2.0241308 C9.74372708,2.0241308 8.82062292,2.90511938 8.82062292,3.98849723 C8.82062292,5.07187508 9.74372708,5.95286367 10.8782479,5.95286367 C12.0127687,5.95286367 12.9358729,5.07187508 12.9358729,3.98849723 C12.9358729,2.90511938 12.0127687,2.0241308 10.8782479,2.0241308 M10.8782479,6.78623124 C9.26926875,6.78623124 7.96020625,5.53141778 7.96020625,3.98849723 C7.96020625,2.44557669 9.26926875,1.19076322 10.8782479,1.19076322 C12.4872271,1.19076322 13.7962896,2.44557669 13.7962896,3.98849723 C13.7962896,5.53141778 12.4872271,6.78623124 10.8782479,6.78623124" id="Fill-3" fill="#F24052"></path>
                <g id="Group-7" transform="translate(15.750000, 0.833606)">
                    <mask id="mask-2" fill="white">
                        <use xlink:href="#path-1"></use>
                    </mask>
                    <g id="Clip-6"></g>
                    <path d="M3.08845417,1.19052511 C1.95393333,1.19052511 1.03082917,2.0715137 1.03082917,3.15489155 C1.03082917,4.2382694 1.95393333,5.11925798 3.08845417,5.11925798 C4.222975,5.11925798 5.14607917,4.2382694 5.14607917,3.15489155 C5.14607917,2.0715137 4.222975,1.19052511 3.08845417,1.19052511 M3.08845417,5.95262556 C1.479475,5.95262556 0.1704125,4.69781209 0.1704125,3.15489155 C0.1704125,1.611971 1.479475,0.357157534 3.08845417,0.357157534 C4.69743333,0.357157534 6.00649583,1.611971 6.00649583,3.15489155 C6.00649583,4.69781209 4.69743333,5.95262556 3.08845417,5.95262556" id="Fill-5" fill="#F24052" mask="url(#mask-2)"></path>
                </g>
            </g>
        </g>
    </g>
</svg>